<?xml version="1.0" encoding="UTF-8"?>
<svg width="16px" height="16px" viewBox="0 0 16 16" version="1.1" xmlns="http://www.w3.org/2000/svg" xmlns:xlink="http://www.w3.org/1999/xlink">
    <!-- Generator: Sketch 52.3 (67297) - http://www.bohemiancoding.com/sketch -->
    <title>Icon-X-Red</title>
    <desc>Created with Sketch.</desc>
    <g id="Symbols" stroke="none" stroke-width="1" fill="none" fill-rule="evenodd" opacity="0.798995536">
        <g id="Icon/16px/X/Red" fill="#FF1745" fill-rule="nonzero">
            <path d="M9.41421356,8 L12.2071068,10.7928932 C12.5976311,11.1834175 12.5976311,11.8165825 12.2071068,12.2071068 C11.8165825,12.5976311 11.1834175,12.5976311 10.7928932,12.2071068 L8,9.41421356 L5.20710678,12.2071068 C4.81658249,12.5976311 4.18341751,12.5976311 3.79289322,12.2071068 C3.40236893,11.8165825 3.40236893,11.1834175 3.79289322,10.7928932 L6.58578644,8 L3.79289322,5.20710678 C3.40236893,4.81658249 3.40236893,4.18341751 3.79289322,3.79289322 C4.18341751,3.40236893 4.81658249,3.40236893 5.20710678,3.79289322 L8,6.58578644 L10.7928932,3.79289322 C11.1834175,3.40236893 11.8165825,3.40236893 12.2071068,3.79289322 C12.5976311,4.18341751 12.5976311,4.81658249 12.2071068,5.20710678 L9.41421356,8 Z" id="Combined-Shape"></path>
        </g>
    </g>
</svg>