<?xml version="1.0" encoding="UTF-8"?>
<svg width="44px" height="44px" viewBox="0 0 44 44" version="1.1" xmlns="http://www.w3.org/2000/svg" xmlns:xlink="http://www.w3.org/1999/xlink">
    <!-- Generator: Sketch 52.2 (67145) - http://www.bohemiancoding.com/sketch -->
    <title>Icon-Categories-Text-Blue</title>
    <desc>Created with Sketch.</desc>
    <g id="Symbols" stroke="none" stroke-width="1" fill="none" fill-rule="evenodd">
        <g id="Icon/44px/Categories/Text/Blue">
            <g id="Icon" transform="translate(9.000000, 3.000000)">
                <path d="M2,6.02758751 L2,32.9724125 L24,36.6390792 L24,2.36092084 L2,6.02758751 Z M0.928571429,4.17857143 L25.0714286,0.154761905 C25.5842644,0.0692892649 26,0.485024854 26,1.08333333 L26,37.9166667 C26,38.5149751 25.5842644,38.9307107 25.0714286,38.8452381 L0.928571429,34.8214286 C0.415735589,34.7359559 6.28042769e-17,34.2894251 0,33.8240741 L0,5.17592593 C-6.28042769e-17,4.71057489 0.415735589,4.26404407 0.928571429,4.17857143 Z" id="Path" fill="#91BCFF" fill-rule="nonzero"></path>
                <path d="M6.58816292,14.7079747 L19.5792343,14.0631334 C20.003262,14.0420859 20.3271429,14.4118469 20.3271429,14.8571429 C20.3271429,15.2931942 20.0181134,15.6736109 19.6060108,15.6899754 L6.61493935,16.2058484 C6.20331537,16.2221939 5.87000006,15.8912967 5.87000006,15.4761905 C5.87000006,15.0712604 6.18733889,14.7278705 6.58816292,14.7079747 Z M6.59708049,17.4031014 L16.9899376,17.1967522 C17.4081683,17.1884483 17.7289287,17.5546466 17.7289287,17.9910714 C17.7289287,18.4243618 17.4132002,18.7942186 16.998871,18.7983318 L6.60601388,18.9015064 C6.19780511,18.9055589 5.87000006,18.5703691 5.87000006,18.1587302 C5.87000006,17.7504829 6.19247927,17.4111348 6.59708049,17.4031014 Z M6.60601388,20.0984936 L10.0702996,20.1328851 C10.4794134,20.1369466 10.8003572,20.4874236 10.8003572,20.905754 C10.8003572,21.3273816 10.4741627,21.6738777 10.0613662,21.6656816 L6.59708049,21.5968986 C6.19247927,21.5888652 5.87000006,21.2495171 5.87000006,20.8412698 C5.87000006,20.4296309 6.19780511,20.0944411 6.60601388,20.0984936 Z M6.61790866,23.6927631 L17.0107658,24.2086361 C17.419626,24.2289308 17.7289287,24.6035425 17.7289287,25.0327381 C17.7289287,25.4734265 17.4011757,25.8345929 16.9780551,25.8093899 L6.58519799,25.1903422 C6.18566667,25.1665443 5.87000006,24.8218301 5.87000006,24.4179894 C5.87000006,24.0017104 6.20519277,23.672277 6.61790866,23.6927631 Z M6.62678689,26.3887723 L19.6178583,27.4205184 C20.0241927,27.4527893 20.3271429,27.8377525 20.3271429,28.2698413 C20.3271429,28.7193895 19.9961383,29.0841392 19.5674094,29.0458335 L6.57633802,27.8851192 C6.18077348,27.8497767 5.87000006,27.5011504 5.87000006,27.1005291 C5.87000006,26.6806795 6.21094547,26.3557464 6.62678689,26.3887723 Z M6.63560278,29.0850401 L10.0998885,29.463347 C10.4955864,29.506558 10.8003572,29.8696298 10.8003572,30.2774471 C10.8003572,30.7105575 10.4553457,31.0427908 10.0318336,30.9923381 L6.56754789,30.5796397 C6.17606444,30.5330025 5.87000006,30.1805435 5.87000006,29.7830688 C5.87000006,29.3595686 6.21687598,29.0393143 6.63560278,29.0850401 Z" id="Combined-Shape" fill="#91BCFF" fill-rule="nonzero"></path>
                <path d="M6.03571429,8.71825397 L15.3214286,7.68650794 C15.5778465,7.65801706 15.7857143,7.85626134 15.7857143,8.12929894 L15.7857143,10.1068122 C15.7857143,10.3798498 15.5778465,10.6185128 15.3214286,10.639881 L6.03571429,11.4136905 C5.77929637,11.4350586 5.57142857,11.252212 5.57142857,11.005291 L5.57142857,9.21693122 C5.57142857,8.97001026 5.77929637,8.74674485 6.03571429,8.71825397 Z" id="Path" fill="#3C81ED"></path>
            </g>
        </g>
    </g>
</svg>