<?xml version="1.0" encoding="UTF-8"?>
<svg width="16px" height="16px" viewBox="0 0 16 16" version="1.1" xmlns="http://www.w3.org/2000/svg" xmlns:xlink="http://www.w3.org/1999/xlink">
    <!-- Generator: Sketch 52.2 (67145) - http://www.bohemiancoding.com/sketch -->
    <title>Icon-X-White</title>
    <desc>Created with Sketch.</desc>
    <g id="Symbols" stroke="none" stroke-width="1" fill="none" fill-rule="evenodd">
        <g id="Icon/16px/X/White" fill="#FFFFFF" fill-rule="nonzero">
            <path d="M9.41421356,8 L13.2071068,11.7928932 C13.5976311,12.1834175 13.5976311,12.8165825 13.2071068,13.2071068 C12.8165825,13.5976311 12.1834175,13.5976311 11.7928932,13.2071068 L8,9.41421356 L4.20710678,13.2071068 C3.81658249,13.5976311 3.18341751,13.5976311 2.79289322,13.2071068 C2.40236893,12.8165825 2.40236893,12.1834175 2.79289322,11.7928932 L6.58578644,8 L2.79289322,4.20710678 C2.40236893,3.81658249 2.40236893,3.18341751 2.79289322,2.79289322 C3.18341751,2.40236893 3.81658249,2.40236893 4.20710678,2.79289322 L8,6.58578644 L11.7928932,2.79289322 C12.1834175,2.40236893 12.8165825,2.40236893 13.2071068,2.79289322 C13.5976311,3.18341751 13.5976311,3.81658249 13.2071068,4.20710678 L9.41421356,8 Z" id="Combined-Shape"></path>
        </g>
    </g>
</svg>