<?xml version="1.0" encoding="UTF-8"?>
<svg width="44px" height="44px" viewBox="0 0 44 44" version="1.1" xmlns="http://www.w3.org/2000/svg" xmlns:xlink="http://www.w3.org/1999/xlink">
    <!-- Generator: Sketch 52.2 (67145) - http://www.bohemiancoding.com/sketch -->
    <title>Icon-Categories-Image-Dark</title>
    <desc>Created with Sketch.</desc>
    <g id="Symbols" stroke="none" stroke-width="1" fill="none" fill-rule="evenodd">
        <g id="Icon/44px/Categories/Image/Dark">
            <g id="Icon" transform="translate(0.000000, 9.000000)">
                <path d="M41.5755478,25 L37.1952589,2.38023372 C37.1673144,2.23592851 37.0999861,2.09592016 37.0211454,2 L6.97885461,2 C6.90001389,2.09592016 6.83268563,2.23592851 6.80474111,2.38023372 L2.42445216,25 L41.5755478,25 Z M43.6127025,25 C43.826601,26.1045695 43.1045695,27 42,27 L2,27 C0.8954305,27 0.173398976,26.1045695 0.387297454,25 L4.84121817,2 C5.05511665,0.8954305 5.91113829,0 6.75319602,0 L37.246804,0 C38.0888617,-3.55271368e-15 38.9448834,0.8954305 39.1587818,2 L43.6127025,25 Z" id="Combined-Shape" fill="#8194B2" fill-rule="nonzero"></path>
                <path d="M36.0518088,22.0977894 L6.9979949,22.0977894 C6.7345092,22.0977894 6.54865325,21.9148899 6.58287401,21.6892719 C6.59533347,21.6071265 6.63626289,21.5268891 6.7002647,21.4590329 L18.392484,7.42427418 C18.5270552,7.23790236 18.7824322,7.18989966 18.9638666,7.31705716 C19.0049161,7.34577385 19.039995,7.38211097 19.0672933,7.4241935 L26.8435104,18.0474514 C26.933187,18.1357748 27.0621373,18.1923611 27.2030858,18.1923611 C27.4564884,18.1923611 27.6513607,18.0094616 27.6383455,17.7838436 C27.6342597,17.7130175 27.6102858,17.6464012 27.5715504,17.5883311 L24.7475703,14.0147592 L26.7568723,11.0917877 C26.880107,10.9058985 27.1419038,10.8588581 27.3425966,10.9867201 C27.3870982,11.0150253 27.4262937,11.0506368 27.4582383,11.0917877 L36.3542916,21.4577573 C36.5292605,21.6436465 36.5108051,21.8979921 36.3120854,22.0258541 C36.2391329,22.0727062 36.1483571,22.0977894 36.0518088,22.0977894 Z" id="Combined-Shape" fill="#0D2957"></path>
                <path d="M31.909961,10.2507806 C30.3961192,10.2507806 29.0744281,9.0619336 28.9578812,7.59541653 C28.8413343,6.12889946 29.9018163,4.94005248 31.3265341,4.94005248 C32.7512518,4.94005248 34.0729429,6.12889946 34.2786139,7.59541653 C34.4842848,9.0619336 33.4238028,10.2507806 31.909961,10.2507806 Z" id="Path" fill="#0D2957"></path>
            </g>
        </g>
    </g>
</svg>