<?xml version="1.0" encoding="UTF-8"?>
<svg width="56px" height="56px" viewBox="0 0 56 56" version="1.1" xmlns="http://www.w3.org/2000/svg" xmlns:xlink="http://www.w3.org/1999/xlink">
    <!-- Generator: Sketch 52.3 (67297) - http://www.bohemiancoding.com/sketch -->
    <title>Icon-56px-Upload</title>
    <desc>Created with Sketch.</desc>
    <g id="Symbols" stroke="none" stroke-width="1" fill="none" fill-rule="evenodd">
        <g id="Icon/56px/Upload">
            <path d="M35.1956816,43.980863 C35.1323998,43.9934171 35.0669687,44 35,44 C34.4477153,44 34,43.5522847 34,43 C34,42.4477153 34.4477153,42 35,42 L43.9227759,42 C44.0740365,41.9750972 44.230759,41.9672944 44.3907997,41.9785893 C44.5926876,41.9928375 44.7958257,42 45,42 C49.6944204,42 53.5,38.1944204 53.5,33.5 C53.5,28.8055796 49.6944204,25 45,25 C43.8894239,25.0102638 43.021966,24.2408656 42.9091659,23.2201859 C42.0812773,15.7289746 35.7247393,10 28.125,10 C21.5174512,10 15.7565397,14.3472295 13.8798326,20.5769435 C13.6259284,21.4197764 12.85082,21.9975176 11.9705767,22.0000422 C6.46019392,22.0158463 2,26.4880962 2,32 C2,37.2898078 6.12081812,41.6568439 11.3730998,41.9807355 C11.4340543,41.9844944 11.494232,41.9909562 11.5535189,42 L21,42 C21.5522847,42 22,42.4477153 22,43 C22,43.5522847 21.5522847,44 21,44 C20.95779,44 20.9161909,43.9973848 20.8753558,43.9923076 L11.25,44 C4.97195271,43.5897962 0,38.375529 0,32 C0,25.3843067 5.35359187,20.0190119 11.9648406,20.0000504 C14.0564367,13.0570142 20.5001539,8 28.125,8 C36.8112077,8 43.9645798,14.5628491 44.8970632,23.0004941 C50.7989899,23 55.5,27.7010101 55.5,33.5 C55.5,39.0468148 51.1989567,43.5890671 45.75,43.973627 L44.25,43.973627 L35.1956816,43.980863 Z" id="Combined-Shape" fill="#E1E8F2" fill-rule="nonzero"></path>
            <path d="M27.0332274,44.5857864 L27.0332274,24 C27.0332274,23.4477153 27.4809427,23 28.0332274,23 C28.5855122,23 29.0332274,23.4477153 29.0332274,24 L29.0332274,44.5857864 L33.3541823,40.2648315 C33.7447066,39.8743073 34.3778716,39.8743073 34.7683959,40.2648315 C35.1589202,40.6553558 35.1589202,41.2885208 34.7683959,41.6790451 L28.7403342,47.7071068 C28.5593698,47.8880712 28.3093698,48 28.0332274,48 C27.7570851,48 27.5070851,47.8880712 27.3261206,47.7071068 L21.2928932,41.6738794 C20.9023689,41.2833551 20.9023689,40.6501901 21.2928932,40.2596658 C21.6834175,39.8691415 22.3165825,39.8691415 22.7071068,40.2596658 L27.0332274,44.5857864 Z" id="Combined-Shape" fill="#8194B2"></path>
        </g>
    </g>
</svg>