<?xml version="1.0" encoding="UTF-8"?>
<svg width="24px" height="24px" viewBox="0 0 24 24" version="1.1" xmlns="http://www.w3.org/2000/svg" xmlns:xlink="http://www.w3.org/1999/xlink">
    <!-- Generator: Sketch 52.2 (67145) - http://www.bohemiancoding.com/sketch -->
    <title>Icon-Images-Grey</title>
    <desc>Created with Sketch.</desc>
    <g id="Symbols" stroke="none" stroke-width="1" fill="none" fill-rule="evenodd">
        <g id="Icon/24px/Images/Grey" fill="#8194B2">
            <path d="M1.91666667,4 L22.0833333,4 C22.5895944,4 23,4.39796911 23,4.88888889 L23,19.1111111 C23,19.6020309 22.5895944,20 22.0833333,20 L1.91666667,20 C1.41040565,20 1,19.6020309 1,19.1111111 L1,4.88888889 C1,4.39796911 1.41040565,4 1.91666667,4 Z M15.0628066,15.4012951 L10.3018527,9.351849 C10.2770632,9.32035061 10.2480413,9.29220817 10.2155586,9.26816992 C10.0143322,9.11925596 9.72671487,9.15672036 9.57314735,9.351849 L3.85364999,16.6192563 C3.79269009,16.6967142 3.75966931,16.7914516 3.75966931,16.8888889 C3.75966931,17.1343488 3.96487213,17.3333333 4.21800264,17.3333333 L19.7819974,17.3333333 C19.8824796,17.3333333 19.9801775,17.3013132 20.060056,17.2422006 C20.2612824,17.0932866 20.2999175,16.8143849 20.14635,16.6192563 L16.1757562,11.5740712 C16.1509667,11.5425728 16.1219448,11.5144304 16.0894621,11.4903921 C15.8882357,11.3414782 15.6006184,11.3789426 15.4470509,11.5740712 L14.3254588,12.9992081 L15.7583054,14.8222425 C15.826885,14.8999299 15.8683065,15.0008298 15.8683065,15.1111111 C15.8683065,15.356571 15.6631037,15.5555556 15.4099731,15.5555556 C15.2712127,15.5555556 15.1468544,15.4957609 15.0628066,15.4012951 Z M17.2708333,9.77777778 C18.1567901,9.77777778 18.875,9.08133183 18.875,8.22222222 C18.875,7.36311261 18.1567901,6.66666667 17.2708333,6.66666667 C16.3848765,6.66666667 15.6666667,7.36311261 15.6666667,8.22222222 C15.6666667,9.08133183 16.3848765,9.77777778 17.2708333,9.77777778 Z" id="Combined-Shape"></path>
        </g>
    </g>
</svg>