<?xml version="1.0" encoding="UTF-8"?>
<svg width="16px" height="16px" viewBox="0 0 16 16" version="1.1" xmlns="http://www.w3.org/2000/svg" xmlns:xlink="http://www.w3.org/1999/xlink">
    <!-- Generator: Sketch 52.2 (67145) - http://www.bohemiancoding.com/sketch -->
    <title>Icon-Loader-Grey</title>
    <desc>Created with Sketch.</desc>
    <g id="Symbols" stroke="none" stroke-width="1" fill="none" fill-rule="evenodd">
        <g id="Icon/16px/Loader/Grey" fill="#ADBCD4">
            <path d="M14.3029374,12.9273335 C12.8385954,14.7978481 10.5596865,16 8,16 C3.581722,16 0,12.418278 0,8 L3.2,8 C3.2,11.3137085 5.8862915,14 9.2,14 C10.8532687,14 12.3503613,13.3313307 13.4355857,12.249684 L14.3029374,12.9273335 Z M1.69706261,3.07266654 C3.16140459,1.20215194 5.44031348,0 8,0 C12.418278,-9.47390314e-16 16,3.581722 16,8 L12.8,8 C12.8,4.6862915 10.1137085,2 6.8,2 C5.14673131,2 3.64963872,2.66866935 2.56441431,3.75031596 L1.69706261,3.07266654 Z" id="Combined-Shape"></path>
        </g>
    </g>
</svg>