<?xml version="1.0" encoding="UTF-8"?>
<svg width="44px" height="44px" viewBox="0 0 44 44" version="1.1" xmlns="http://www.w3.org/2000/svg" xmlns:xlink="http://www.w3.org/1999/xlink">
    <!-- Generator: Sketch 52.2 (67145) - http://www.bohemiancoding.com/sketch -->
    <title>Icon-Categories-Text-Dark</title>
    <desc>Created with Sketch.</desc>
    <g id="Symbols" stroke="none" stroke-width="1" fill="none" fill-rule="evenodd">
        <g id="Icon/44px/Categories/Text/Dark">
            <g id="Icon" transform="translate(9.000000, 3.000000)">
                <path d="M2,6.02758751 L2,32.9724125 L24,36.6390792 L24,2.36092084 L2,6.02758751 Z M0.928571429,4.17857143 L25.0714286,0.154761905 C25.5842644,0.0692892649 26,0.485024854 26,1.08333333 L26,37.9166667 C26,38.5149751 25.5842644,38.9307107 25.0714286,38.8452381 L0.928571429,34.8214286 C0.415735589,34.7359559 6.28042769e-17,34.2894251 0,33.8240741 L0,5.17592593 C-6.28042769e-17,4.71057489 0.415735589,4.26404407 0.928571429,4.17857143 Z" id="Path" fill="#8194B2" fill-rule="nonzero"></path>
                <path d="M6.59559936,14.8577903 L19.5866708,14.212949 C19.9182641,14.1964896 20.1771429,14.4920405 20.1771429,14.8571429 C20.1771429,15.2176229 19.9256898,15.5271628 19.600059,15.5400935 L6.60898757,16.0559665 C6.28359607,16.0688878 6.02000007,15.8072041 6.02000007,15.4761905 C6.02000007,15.150265 6.27560783,14.8736738 6.59559936,14.8577903 Z M6.60005814,17.5530719 L16.9929153,17.3467227 C17.3216102,17.3401965 17.5789287,17.633966 17.5789287,17.9910714 C17.5789287,18.3466096 17.3241261,18.6450954 16.997382,18.6483392 L6.60452484,18.7515138 C6.28084094,18.7547271 6.02000007,18.4880101 6.02000007,18.1587302 C6.02000007,17.831146 6.27817802,17.5594628 6.60005814,17.5530719 Z M6.60452484,20.2484862 L10.0688105,20.2828778 C10.392947,20.2860956 10.6503572,20.5671927 10.6503572,20.905754 C10.6503572,21.2459639 10.3903216,21.5221834 10.0643439,21.5157112 L6.60005814,21.4469281 C6.27817802,21.4405372 6.02000007,21.168854 6.02000007,20.8412698 C6.02000007,20.5119899 6.28084094,20.2452729 6.60452484,20.2484862 Z M6.61047223,23.8425786 L17.0033294,24.3584516 C17.327339,24.3745346 17.5789287,24.6792472 17.5789287,25.0327381 C17.5789287,25.3919753 17.3181138,25.6793795 16.986974,25.6596553 L6.59411689,25.0406076 C6.27477172,25.0215859 6.02000007,24.7433702 6.02000007,24.4179894 C6.02000007,24.0863894 6.28453477,23.8264 6.61047223,23.8425786 Z M6.61491134,26.5383015 L19.6059828,27.5700475 C19.9287295,27.59568 20.1771429,27.9113425 20.1771429,28.2698413 C20.1771429,28.6370698 19.9147023,28.9262656 19.5807583,28.8964287 L6.5896869,27.7357144 C6.27232512,27.707359 6.02000007,27.4243002 6.02000007,27.1005291 C6.02000007,26.7671438 6.28741112,26.5122916 6.61491134,26.5383015 Z M6.61931929,29.2341536 L10.083605,29.6124605 C10.4010335,29.6471243 10.6503572,29.9441424 10.6503572,30.2774471 C10.6503572,30.6233984 10.3809131,30.8828631 10.0495776,30.8433913 L6.58529184,30.4306928 C6.2699706,30.3931288 6.02000007,30.1052666 6.02000007,29.7830688 C6.02000007,29.4478582 6.29037638,29.1982324 6.61931929,29.2341536 Z" id="Combined-Shape" stroke="#8194B2" stroke-width="0.300000012" fill="#8194B2" fill-rule="nonzero"></path>
                <path d="M6.03571429,8.71825397 L15.3214286,7.68650794 C15.5778465,7.65801706 15.7857143,7.85626134 15.7857143,8.12929894 L15.7857143,10.1068122 C15.7857143,10.3798498 15.5778465,10.6185128 15.3214286,10.639881 L6.03571429,11.4136905 C5.77929637,11.4350586 5.57142857,11.252212 5.57142857,11.005291 L5.57142857,9.21693122 C5.57142857,8.97001026 5.77929637,8.74674485 6.03571429,8.71825397 Z" id="Path" fill="#0D2A56"></path>
            </g>
        </g>
    </g>
</svg>