<?xml version="1.0" encoding="UTF-8"?>
<svg width="114px" height="114px" viewBox="0 0 114 114" version="1.1" xmlns="http://www.w3.org/2000/svg" xmlns:xlink="http://www.w3.org/1999/xlink">
    <!-- Generator: Sketch 52.2 (67145) - http://www.bohemiancoding.com/sketch -->
    <title>Logo-Icon-Blue</title>
    <desc>Created with Sketch.</desc>
    <g id="Symbols" stroke="none" stroke-width="1" fill="none" fill-rule="evenodd">
        <g id="Logo/Icon/Blue" fill="#3C81ED">
            <path d="M98.8,99.5 C90.3,107.7 78.7,112.8 66,112.8 C39.9,112.8 18.7,91.6 18.7,65.5 L18.7,57.8 L38.4,57.8 L38.4,65.5 C38.4,85.5 54.6,101.7 74.6,101.7 C82.1,101.7 89.1,99.4 94.9,95.5 L98.8,99.5 Z M31.8,109.8 L33.2,107 C36.6,108.6 40.3,109.6 44.1,110 L43.5,112.5 C39.4,112.1 35.5,111.2 31.8,109.8 Z M18.1,101.9 L21.3,98.2 C23.9,101.1 26.9,103.5 30.2,105.5 L28.4,108.4 C24.7,106.7 21.2,104.5 18.1,101.9 Z M1,65.5 C1,39.4 22.2,18.2 48.3,18.2 L56,18.2 L56,37.9 L48.3,37.9 C28.3,37.9 12.1,54.1 12.1,74.1 C12.1,81.6 14.4,88.6 18.3,94.4 L14.3,98.4 C6.1,89.9 1,78.3 1,65.5 Z M98.7,92.5 C101.6,89.9 104,86.9 106,83.6 L108.9,85.4 C107.2,89.1 105,92.5 102.4,95.7 L98.7,92.5 Z M66,95.5 L58.3,95.5 L58.3,75.9 L66,75.9 C86,75.9 102.2,59.7 102.2,39.7 C102.2,32.2 99.9,25.2 96,19.4 L100,15.5 C108.2,24 113.3,35.6 113.3,48.3 C113.3,74.4 92.1,95.5 66,95.5 Z M110.3,82 L107.5,80.6 C109.1,77.2 110.1,73.5 110.5,69.7 L113,70.3 C112.6,74.4 111.7,78.3 110.3,82 Z M75.9,55.9 L75.9,48.2 C75.9,28.2 59.7,12 39.7,12 C32.2,12 25.2,14.3 19.4,18.2 L15.5,14.2 C23.9,6.1 35.5,1 48.3,1 C74.4,1 95.6,22.2 95.6,48.3 L95.6,55.9 L75.9,55.9 Z M4,31.8 L6.8,33.2 C5.2,36.6 4.2,40.3 3.8,44.1 L1.3,43.5 C1.6,39.4 2.6,35.5 4,31.8 Z M11.9,18.1 L15.6,21.3 C12.7,23.9 10.3,26.9 8.3,30.2 L5.4,28.4 C7.1,24.7 9.3,21.2 11.9,18.1 Z M93,15.5 C90.4,12.6 87.4,10.2 84.1,8.2 L85.9,5.3 C89.6,7.1 93,9.3 96.1,11.9 L93,15.5 Z M82.5,4 L81,6.8 C77.6,5.2 73.9,4.2 70.1,3.8 L70.7,1.3 C74.8,1.6 78.8,2.6 82.5,4 Z" id="Combined-Shape"></path>
        </g>
    </g>
</svg>