<?xml version="1.0" encoding="UTF-8"?>
<svg width="170px" height="34px" viewBox="0 0 170 34" version="1.1" xmlns="http://www.w3.org/2000/svg" xmlns:xlink="http://www.w3.org/1999/xlink">
  <!-- Generator: Sketch 51.3 (57544) - http://www.bohemiancoding.com/sketch -->
  <title>logo</title>
  <desc>Created with Sketch.</desc>
  <defs></defs>
  <g id="Onboarding" stroke="none" stroke-width="1" fill="none" fill-rule="evenodd">
    <g id="DML/Onboarding---Step-4" transform="translate(-64.000000, -48.000000)" fill="#FFFFFF">
      <g id="Sidebar">
        <g id="Logo/White" transform="translate(64.000000, 48.000000)">
          <g id="dml-logo" stroke-width="1" transform="translate(40.448276, 1.465517)">
            <path d="M0.263793103,1.20172414 L6.30172414,1.20172414 C6.82931034,1.20172414 7.35689655,1.26034483 7.94310345,1.37758621 C8.52931034,1.49482759 9.0862069,1.67068966 9.67241379,1.93448276 C10.2293103,2.19827586 10.7862069,2.52068966 11.3137931,2.93103448 C11.8413793,3.34137931 12.3103448,3.83965517 12.6913793,4.42586207 C13.1017241,5.01206897 13.3948276,5.6862069 13.6586207,6.44827586 C13.8931034,7.21034483 14.0103448,8.06034483 14.0103448,9.02758621 C14.0103448,9.99482759 13.8931034,10.8448276 13.6586207,11.6068966 C13.4241379,12.3689655 13.1017241,13.0431034 12.6913793,13.6293103 C12.2810345,14.2155172 11.8413793,14.7137931 11.3137931,15.1241379 C10.7862069,15.5344828 10.2293103,15.8862069 9.67241379,16.1206897 C9.11551724,16.3844828 8.52931034,16.5603448 7.94310345,16.6775862 C7.35689655,16.7948276 6.82931034,16.8534483 6.30172414,16.8534483 L0.263793103,16.8534483 L0.263793103,1.20172414 Z M2.13965517,15.1827586 L5.6862069,15.1827586 C6.59482759,15.1827586 7.41551724,15.0655172 8.20689655,14.8310345 C8.96896552,14.5965517 9.64310345,14.2155172 10.2,13.7465517 C10.7568966,13.2482759 11.1965517,12.6327586 11.5189655,11.8413793 C11.8413793,11.0793103 12.0172414,10.1413793 12.0172414,9.05689655 C12.0172414,7.97241379 11.8413793,7.0637931 11.5189655,6.27241379 C11.1965517,5.51034483 10.7568966,4.86551724 10.2,4.36724138 C9.64310345,3.86896552 8.96896552,3.51724138 8.20689655,3.28275862 C7.44482759,3.04827586 6.59482759,2.93103448 5.6862069,2.93103448 L2.13965517,2.93103448 L2.13965517,15.1827586 Z M25.1775862,15.0362069 C24.562069,15.8275862 23.887931,16.3844828 23.1258621,16.7068966 C22.3931034,17.0293103 21.5137931,17.1758621 20.5465517,17.1758621 C19.7258621,17.1758621 18.9931034,17.0293103 18.3482759,16.7362069 C17.7034483,16.4431034 17.1465517,16.062069 16.7068966,15.5637931 C16.2672414,15.0655172 15.9155172,14.5086207 15.6517241,13.8344828 C15.4172414,13.1603448 15.3,12.4568966 15.3,11.6948276 C15.3,10.9034483 15.4465517,10.1706897 15.7103448,9.49655172 C15.9741379,8.82241379 16.3551724,8.2362069 16.8241379,7.76724138 C17.2931034,7.29827586 17.85,6.91724138 18.5241379,6.65344828 C19.1689655,6.38965517 19.8724138,6.24310345 20.6637931,6.24310345 C21.3965517,6.24310345 22.0413793,6.36034483 22.6568966,6.59482759 C23.2724138,6.82931034 23.7706897,7.18103448 24.2103448,7.65 C24.65,8.11896552 24.9724138,8.67586207 25.2068966,9.35 C25.4413793,10.0241379 25.5586207,10.7862069 25.5586207,11.6362069 L25.5586207,12.1931034 L17.1758621,12.1931034 C17.2051724,12.6327586 17.3224138,13.0724138 17.4982759,13.4827586 C17.6741379,13.8931034 17.937931,14.2448276 18.2310345,14.537931 C18.5241379,14.8310345 18.8758621,15.0948276 19.2862069,15.2706897 C19.6965517,15.4465517 20.1362069,15.5344828 20.6051724,15.5344828 C21.3672414,15.5344828 21.9827586,15.387931 22.5103448,15.1241379 C23.037931,14.8603448 23.5068966,14.4793103 23.9172414,13.9517241 L25.1775862,15.0362069 Z M23.712069,10.7862069 C23.6827586,9.90689655 23.3896552,9.17413793 22.8327586,8.64655172 C22.2758621,8.11896552 21.5431034,7.85517241 20.5758621,7.85517241 C19.6086207,7.85517241 18.8465517,8.11896552 18.2603448,8.64655172 C17.6741379,9.17413793 17.3224138,9.87758621 17.2051724,10.7862069 L23.712069,10.7862069 Z M35.0551724,9.11551724 C34.6741379,8.67586207 34.2931034,8.35344828 33.8534483,8.14827586 C33.4137931,7.94310345 32.9448276,7.85517241 32.4465517,7.85517241 C31.8603448,7.85517241 31.362069,7.94310345 30.9224138,8.14827586 C30.4827586,8.35344828 30.1017241,8.61724138 29.837931,8.96896552 C29.5448276,9.32068966 29.3396552,9.73103448 29.1931034,10.2 C29.0465517,10.6689655 28.9586207,11.1672414 28.9586207,11.6948276 C28.9586207,12.2224138 29.0465517,12.7206897 29.2224138,13.1896552 C29.3982759,13.6586207 29.6327586,14.0689655 29.9258621,14.4206897 C30.2189655,14.7724138 30.6,15.0655172 31.0103448,15.2413793 C31.45,15.4465517 31.9189655,15.5344828 32.4465517,15.5344828 C33.5896552,15.5344828 34.4689655,15.0948276 35.0844828,14.2448276 L36.3741379,15.4758621 C35.8758621,16.062069 35.2896552,16.4724138 34.5862069,16.7362069 C33.912069,17 33.1793103,17.1465517 32.4465517,17.1465517 C31.6551724,17.1465517 30.9224138,17 30.2482759,16.7362069 C29.5741379,16.4724138 29.0172414,16.0913793 28.5482759,15.5931034 C28.0793103,15.0948276 27.7275862,14.537931 27.4637931,13.8637931 C27.2,13.1896552 27.0827586,12.4568966 27.0827586,11.6655172 C27.0827586,10.8741379 27.2,10.1706897 27.4637931,9.49655172 C27.7275862,8.82241379 28.0793103,8.26551724 28.5482759,7.76724138 C29.0172414,7.26896552 29.5741379,6.88793103 30.2482759,6.62413793 C30.8931034,6.36034483 31.6258621,6.2137931 32.4465517,6.2137931 C33.2086207,6.2137931 33.9413793,6.36034483 34.6448276,6.62413793 C35.3189655,6.88793103 35.9344828,7.29827586 36.462069,7.85517241 L35.0551724,9.11551724 Z M47.1310345,15.0362069 C46.5155172,15.8275862 45.8413793,16.3844828 45.0793103,16.7068966 C44.3465517,17.0293103 43.4672414,17.1758621 42.5,17.1758621 C41.6793103,17.1758621 40.9465517,17.0293103 40.3017241,16.7362069 C39.6568966,16.4431034 39.1,16.062069 38.6603448,15.5637931 C38.2206897,15.0655172 37.8689655,14.5086207 37.6051724,13.8344828 C37.3706897,13.1603448 37.2534483,12.4568966 37.2534483,11.6948276 C37.2534483,10.9034483 37.4,10.1706897 37.6637931,9.49655172 C37.9275862,8.82241379 38.3086207,8.2362069 38.7775862,7.76724138 C39.2465517,7.29827586 39.8034483,6.91724138 40.4775862,6.65344828 C41.1224138,6.38965517 41.8258621,6.24310345 42.6172414,6.24310345 C43.35,6.24310345 43.9948276,6.36034483 44.6103448,6.59482759 C45.2258621,6.82931034 45.7241379,7.18103448 46.1637931,7.65 C46.6034483,8.11896552 46.9258621,8.67586207 47.1603448,9.35 C47.3948276,10.0241379 47.512069,10.7862069 47.512069,11.6362069 L47.512069,12.1931034 L39.1293103,12.1931034 C39.1586207,12.6327586 39.2758621,13.0724138 39.4517241,13.4827586 C39.6275862,13.8931034 39.8913793,14.2448276 40.1844828,14.537931 C40.4775862,14.8310345 40.8293103,15.0948276 41.2396552,15.2706897 C41.65,15.4465517 42.0896552,15.5344828 42.5586207,15.5344828 C43.3206897,15.5344828 43.9362069,15.387931 44.4637931,15.1241379 C44.9913793,14.8603448 45.4603448,14.4793103 45.8706897,13.9517241 L47.1310345,15.0362069 Z M45.6362069,10.7862069 C45.6068966,9.90689655 45.3137931,9.17413793 44.7568966,8.64655172 C44.2,8.11896552 43.4672414,7.85517241 42.5,7.85517241 C41.5327586,7.85517241 40.7706897,8.11896552 40.1844828,8.64655172 C39.5982759,9.17413793 39.2465517,9.87758621 39.1293103,10.7862069 L45.6362069,10.7862069 Z M49.5344828,7.67931034 C49.5051724,7.26896552 49.4758621,6.88793103 49.4758621,6.5362069 L51.1172414,6.5362069 C51.1172414,6.82931034 51.1172414,7.09310345 51.1465517,7.3862069 C51.1465517,7.67931034 51.1758621,7.94310345 51.1758621,8.26551724 L51.2344828,8.26551724 C51.3517241,8.00172414 51.5275862,7.76724138 51.7327586,7.53275862 C51.937931,7.29827586 52.2017241,7.09310345 52.4948276,6.88793103 C52.787931,6.71206897 53.1103448,6.56551724 53.4913793,6.44827586 C53.8724138,6.33103448 54.2534483,6.27241379 54.6931034,6.27241379 C55.3672414,6.27241379 55.9534483,6.38965517 56.4517241,6.59482759 C56.95,6.8 57.3603448,7.09310345 57.6827586,7.47413793 C58.0051724,7.85517241 58.2396552,8.29482759 58.4155172,8.82241379 C58.562069,9.35 58.65,9.90689655 58.65,10.5517241 L58.65,16.9706897 L56.9206897,16.9706897 L56.9206897,10.6689655 C56.9206897,9.78965517 56.7155172,9.11551724 56.3344828,8.61724138 C55.9534483,8.11896552 55.337931,7.85517241 54.5465517,7.85517241 C53.9896552,7.85517241 53.4913793,7.94310345 53.0810345,8.14827586 C52.6706897,8.35344828 52.3482759,8.61724138 52.0844828,8.96896552 C51.8206897,9.32068966 51.6448276,9.73103448 51.4982759,10.2293103 C51.3810345,10.7275862 51.3224138,11.2551724 51.3224138,11.8413793 L51.3224138,16.912069 L49.5931034,16.912069 L49.5931034,8.99827586 C49.5931034,8.52931034 49.5637931,8.08965517 49.5344828,7.67931034 Z M67.0327586,8.00172414 L63.9844828,8.00172414 L63.9844828,13.1896552 C63.9844828,13.5413793 63.9844828,13.8344828 64.0137931,14.1275862 C64.0137931,14.4206897 64.1017241,14.6551724 64.1896552,14.8896552 C64.3068966,15.0948276 64.4534483,15.2706897 64.6586207,15.387931 C64.8637931,15.5051724 65.1568966,15.5637931 65.537931,15.5637931 C65.8017241,15.5637931 66.0362069,15.5344828 66.3,15.4758621 C66.5637931,15.4172414 66.8275862,15.3293103 67.062069,15.212069 L67.1206897,16.7948276 C66.8275862,16.9413793 66.5051724,17.0293103 66.1241379,17.087931 C65.7724138,17.1465517 65.4206897,17.1758621 65.0982759,17.1758621 C64.4827586,17.1758621 63.9844828,17.087931 63.6034483,16.9413793 C63.2224138,16.7655172 62.9586207,16.5603448 62.7241379,16.2672414 C62.5189655,15.9741379 62.3724138,15.5931034 62.3137931,15.1827586 C62.2551724,14.7431034 62.2258621,14.2741379 62.2258621,13.7172414 L62.2258621,8.00172414 L59.9689655,8.00172414 L59.9689655,6.5362069 L62.2258621,6.5362069 L62.2258621,3.57586207 L63.9551724,3.57586207 L63.9551724,6.5362069 L67.0034483,6.5362069 L67.0034483,8.00172414 L67.0327586,8.00172414 Z M68.7913793,8.99827586 C68.7913793,8.52931034 68.762069,8.08965517 68.7327586,7.67931034 C68.7034483,7.26896552 68.6741379,6.88793103 68.6741379,6.5362069 L70.3155172,6.5362069 C70.3155172,6.82931034 70.3155172,7.09310345 70.3448276,7.3862069 C70.3448276,7.67931034 70.3741379,7.94310345 70.3741379,8.26551724 L70.4327586,8.26551724 C70.55,8.00172414 70.7258621,7.76724138 70.9310345,7.53275862 C71.1362069,7.29827586 71.4,7.09310345 71.6931034,6.88793103 C71.9862069,6.71206897 72.3086207,6.56551724 72.6896552,6.44827586 C73.0706897,6.33103448 73.4517241,6.27241379 73.8913793,6.27241379 C74.0086207,6.27241379 74.1258621,6.27241379 74.2431034,6.30172414 C74.3603448,6.33103448 74.4775862,6.36034483 74.5948276,6.38965517 L74.4775862,8.14827586 C74.1844828,8.06034483 73.862069,8.00172414 73.5396552,8.00172414 C72.4844828,8.00172414 71.6931034,8.35344828 71.2241379,9.02758621 C70.7551724,9.70172414 70.4913793,10.6689655 70.4913793,11.8706897 L70.4913793,16.9413793 L68.762069,16.9413793 L68.762069,8.99827586 L68.7913793,8.99827586 Z M76.0896552,7.85517241 C76.6172414,7.29827586 77.262069,6.91724138 77.9948276,6.65344828 C78.7275862,6.38965517 79.4603448,6.27241379 80.2224138,6.27241379 C81.7465517,6.27241379 82.8603448,6.62413793 83.5637931,7.35689655 C84.237931,8.08965517 84.5896552,9.17413793 84.5896552,10.6689655 L84.5896552,15.1241379 C84.5896552,15.4172414 84.5896552,15.7396552 84.6482759,16.0327586 C84.6775862,16.3551724 84.7068966,16.6482759 84.7655172,16.912069 L83.0948276,16.912069 C83.0362069,16.6775862 83.0068966,16.4137931 83.0068966,16.1206897 C83.0068966,15.8275862 83.0068966,15.5637931 83.0068966,15.3586207 L82.9482759,15.3586207 C82.5965517,15.8862069 82.1568966,16.3258621 81.5706897,16.6775862 C81.0137931,17.0293103 80.3103448,17.1758621 79.5189655,17.1758621 C78.9913793,17.1758621 78.4931034,17.1172414 78.0241379,16.9706897 C77.5551724,16.8241379 77.1448276,16.6482759 76.7931034,16.3844828 C76.4413793,16.1206897 76.1775862,15.7982759 75.9724138,15.4172414 C75.7672414,15.0362069 75.65,14.5965517 75.65,14.0982759 C75.65,13.2482759 75.8844828,12.5741379 76.3241379,12.0758621 C76.7637931,11.5775862 77.3206897,11.2258621 77.9655172,10.9913793 C78.6103448,10.7568966 79.3431034,10.6103448 80.1051724,10.5517241 C80.8672414,10.4931034 81.5706897,10.4637931 82.2155172,10.4637931 L82.8896552,10.4637931 L82.8896552,10.1413793 C82.8896552,9.37931034 82.6551724,8.82241379 82.2155172,8.44137931 C81.7758621,8.06034483 81.1310345,7.85517241 80.3103448,7.85517241 C79.7534483,7.85517241 79.1965517,7.94310345 78.6689655,8.11896552 C78.1413793,8.29482759 77.6431034,8.58793103 77.2327586,8.96896552 L76.0896552,7.85517241 Z M81.1017241,11.9293103 C79.987931,11.9293103 79.1086207,12.0758621 78.4637931,12.3982759 C77.8189655,12.7206897 77.4965517,13.2189655 77.4965517,13.9224138 C77.4965517,14.5672414 77.7017241,15.0362069 78.1413793,15.3 C78.5810345,15.5637931 79.1086207,15.7103448 79.7827586,15.7103448 C80.2810345,15.7103448 80.7206897,15.6224138 81.1017241,15.4465517 C81.4827586,15.2706897 81.8051724,15.0655172 82.0396552,14.7724138 C82.3034483,14.4793103 82.4793103,14.1568966 82.6258621,13.7758621 C82.7724138,13.3948276 82.8310345,12.9844828 82.8603448,12.5741379 L82.8603448,11.9 L81.1017241,11.9 L81.1017241,11.9293103 Z M87.3448276,0.146551724 L89.0741379,0.146551724 L89.0741379,16.912069 L87.3448276,16.912069 L87.3448276,0.146551724 Z M92.0344828,2.46206897 C92.0344828,2.11034483 92.1517241,1.81724138 92.3862069,1.58275862 C92.6206897,1.31896552 92.9431034,1.20172414 93.2948276,1.20172414 C93.6465517,1.20172414 93.9396552,1.31896552 94.2034483,1.58275862 C94.437931,1.84655172 94.5551724,2.13965517 94.5551724,2.46206897 C94.5551724,2.84310345 94.437931,3.1362069 94.2034483,3.37068966 C93.9689655,3.60517241 93.6758621,3.72241379 93.2948276,3.72241379 C92.9137931,3.72241379 92.6206897,3.60517241 92.3862069,3.37068966 C92.1517241,3.1362069 92.0344828,2.84310345 92.0344828,2.46206897 Z M92.4448276,6.5362069 L94.1741379,6.5362069 L94.1741379,16.912069 L92.4448276,16.912069 L92.4448276,6.5362069 Z M96.3724138,15.5637931 L102.468966,8.00172414 L96.6362069,8.00172414 L96.6362069,6.5362069 L104.725862,6.5362069 L104.725862,7.85517241 L98.6293103,15.4465517 L104.901724,15.4465517 L104.901724,16.912069 L96.3724138,16.912069 L96.3724138,15.5637931 Z M116.010345,15.0362069 C115.394828,15.8275862 114.72069,16.3844828 113.958621,16.7068966 C113.225862,17.0293103 112.346552,17.1758621 111.37931,17.1758621 C110.558621,17.1758621 109.825862,17.0293103 109.181034,16.7362069 C108.536207,16.4431034 107.97931,16.062069 107.539655,15.5637931 C107.1,15.0655172 106.748276,14.5086207 106.484483,13.8344828 C106.22069,13.1603448 106.132759,12.4568966 106.132759,11.6948276 C106.132759,10.9034483 106.27931,10.1706897 106.543103,9.49655172 C106.806897,8.82241379 107.187931,8.2362069 107.656897,7.76724138 C108.125862,7.29827586 108.682759,6.91724138 109.356897,6.65344828 C110.001724,6.38965517 110.705172,6.24310345 111.496552,6.24310345 C112.22931,6.24310345 112.874138,6.36034483 113.489655,6.59482759 C114.105172,6.82931034 114.603448,7.18103448 115.043103,7.65 C115.482759,8.11896552 115.805172,8.67586207 116.039655,9.35 C116.274138,10.0241379 116.391379,10.7862069 116.391379,11.6362069 L116.391379,12.1931034 L108.008621,12.1931034 C108.037931,12.6327586 108.155172,13.0724138 108.331034,13.4827586 C108.506897,13.8931034 108.77069,14.2448276 109.063793,14.537931 C109.356897,14.8310345 109.708621,15.0948276 110.118966,15.2706897 C110.52931,15.4465517 110.968966,15.5344828 111.437931,15.5344828 C112.2,15.5344828 112.815517,15.387931 113.343103,15.1241379 C113.87069,14.8603448 114.339655,14.4793103 114.75,13.9517241 L116.010345,15.0362069 Z M114.515517,10.7862069 C114.486207,9.90689655 114.193103,9.17413793 113.636207,8.64655172 C113.07931,8.11896552 112.346552,7.85517241 111.37931,7.85517241 C110.412069,7.85517241 109.65,8.11896552 109.063793,8.64655172 C108.477586,9.17413793 108.125862,9.87758621 108.008621,10.7862069 L114.515517,10.7862069 Z M127.118966,15.0655172 L127.060345,15.0655172 C126.737931,15.6517241 126.210345,16.15 125.506897,16.5603448 C124.803448,16.9706897 123.982759,17.1758621 123.044828,17.1758621 C122.312069,17.1758621 121.637931,17.0293103 120.993103,16.7655172 C120.348276,16.5017241 119.791379,16.1206897 119.351724,15.6224138 C118.882759,15.1241379 118.531034,14.5672414 118.267241,13.8931034 C118.003448,13.2189655 117.856897,12.5155172 117.856897,11.7241379 C117.856897,10.9327586 118.003448,10.2293103 118.267241,9.55517241 C118.531034,8.88103448 118.912069,8.32413793 119.381034,7.82586207 C119.85,7.32758621 120.436207,6.94655172 121.110345,6.68275862 C121.784483,6.41896552 122.517241,6.27241379 123.337931,6.27241379 C124.1,6.27241379 124.774138,6.41896552 125.418966,6.74137931 C126.034483,7.0637931 126.591379,7.47413793 127.060345,8.06034483 L127.118966,8.06034483 L127.118966,0.146551724 L128.848276,0.146551724 L128.848276,16.912069 L127.118966,16.912069 L127.118966,15.0655172 Z M127.118966,11.7241379 C127.118966,11.1672414 127.031034,10.6689655 126.855172,10.2 C126.67931,9.73103448 126.444828,9.32068966 126.122414,8.96896552 C125.8,8.61724138 125.418966,8.35344828 124.95,8.14827586 C124.510345,7.94310345 123.982759,7.85517241 123.425862,7.85517241 C122.868966,7.85517241 122.37069,7.94310345 121.901724,8.14827586 C121.462069,8.35344828 121.051724,8.61724138 120.72931,8.96896552 C120.406897,9.32068966 120.143103,9.73103448 119.996552,10.2 C119.82069,10.6689655 119.732759,11.1672414 119.732759,11.7241379 C119.732759,12.2810345 119.82069,12.7793103 119.996552,13.2482759 C120.172414,13.7172414 120.406897,14.1275862 120.72931,14.4793103 C121.051724,14.8310345 121.432759,15.0948276 121.901724,15.3 C122.341379,15.5051724 122.868966,15.5931034 123.425862,15.5931034 C123.982759,15.5931034 124.481034,15.5051724 124.95,15.3 C125.389655,15.0948276 125.8,14.8310345 126.122414,14.4793103 C126.444828,14.1275862 126.708621,13.7172414 126.855172,13.2482759 C127.031034,12.7793103 127.118966,12.2810345 127.118966,11.7241379 Z M0.468965517,23.8586207 C0.468965517,23.6241379 0.439655172,23.4189655 0.410344828,23.1844828 L1.31896552,23.1844828 L1.31896552,24.0931034 L1.34827586,24.0931034 C1.55344828,23.7413793 1.84655172,23.4775862 2.19827586,23.3017241 C2.57931034,23.1258621 2.93103448,23.037931 3.28275862,23.037931 C3.45862069,23.037931 3.63448276,23.0672414 3.81034483,23.0965517 C3.9862069,23.1258621 4.16206897,23.1844828 4.33793103,23.2724138 C4.5137931,23.3603448 4.66034483,23.4775862 4.8362069,23.6534483 C4.98275862,23.8293103 5.1,24.0344828 5.21724138,24.2982759 C5.39310345,23.9172414 5.65689655,23.5948276 6.03793103,23.3896552 C6.41896552,23.1844828 6.8,23.0672414 7.21034483,23.0672414 C7.97241379,23.0672414 8.55862069,23.2724138 8.93965517,23.6827586 C9.32068966,24.0931034 9.49655172,24.6793103 9.49655172,25.4413793 L9.49655172,29.2810345 L8.64655172,29.2810345 L8.64655172,25.7051724 C8.64655172,25.0896552 8.52931034,24.6206897 8.32413793,24.2982759 C8.11896552,23.9758621 7.70862069,23.8 7.12241379,23.8 C6.8,23.8 6.5362069,23.8586207 6.33103448,23.9758621 C6.12586207,24.0931034 5.95,24.2689655 5.80344828,24.4741379 C5.65689655,24.6793103 5.56896552,24.9137931 5.51034483,25.1775862 C5.45172414,25.4413793 5.42241379,25.7051724 5.42241379,25.9982759 L5.42241379,29.2224138 L4.57241379,29.2224138 L4.57241379,25.7051724 C4.57241379,25.0896552 4.45517241,24.6206897 4.25,24.2982759 C4.04482759,23.9758621 3.63448276,23.8 3.04827586,23.8 C2.98965517,23.8 2.87241379,23.8293103 2.69655172,23.8586207 C2.52068966,23.887931 2.31551724,23.9758621 2.11034483,24.1517241 C1.90517241,24.2982759 1.72931034,24.5327586 1.58275862,24.8551724 C1.4362069,25.1775862 1.34827586,25.587931 1.34827586,26.1448276 L1.34827586,29.2517241 L0.498275862,29.2517241 L0.498275862,24.5327586 C0.498275862,24.2982759 0.498275862,24.0931034 0.468965517,23.8586207 Z M17.2344828,25.3827586 C17.2344828,24.3275862 16.7068966,23.8293103 15.6810345,23.8293103 C14.9775862,23.8293103 14.362069,24.0637931 13.8344828,24.5327586 L13.3068966,23.9172414 C13.8637931,23.3310345 14.7431034,23.037931 15.8568966,23.037931 C16.15,23.037931 16.4431034,23.0672414 16.7068966,23.1551724 C16.9706897,23.2431034 17.2051724,23.3603448 17.4103448,23.5362069 C17.6155172,23.712069 17.762069,23.9465517 17.8793103,24.2103448 C17.9965517,24.4741379 18.0551724,24.7965517 18.0551724,25.1775862 L18.0551724,27.8741379 C18.0551724,28.1086207 18.0551724,28.3431034 18.0844828,28.6068966 C18.1137931,28.8706897 18.1431034,29.0758621 18.1431034,29.2224138 L17.3224138,29.2224138 C17.2931034,29.0758621 17.2637931,28.9293103 17.2637931,28.7534483 C17.2637931,28.5775862 17.2344828,28.4017241 17.2344828,28.2551724 L17.2051724,28.2551724 C16.9413793,28.6655172 16.6482759,28.9586207 16.3258621,29.1344828 C15.9741379,29.3103448 15.5637931,29.3982759 15.0655172,29.3982759 C14.8017241,29.3982759 14.537931,29.3689655 14.3034483,29.2810345 C14.0396552,29.2224138 13.8344828,29.1051724 13.6293103,28.9586207 C13.4241379,28.812069 13.2775862,28.6362069 13.1603448,28.4017241 C13.0431034,28.1672414 12.9844828,27.9327586 12.9844828,27.6396552 C12.9844828,27.1413793 13.1017241,26.7603448 13.3655172,26.4672414 C13.6293103,26.1741379 13.9517241,25.9689655 14.3327586,25.8517241 C14.7137931,25.7051724 15.1241379,25.6172414 15.5637931,25.587931 C16.0034483,25.5586207 16.3844828,25.5293103 16.7655172,25.5293103 L17.2344828,25.5293103 L17.2344828,25.3827586 Z M15.9741379,26.262069 C15.6517241,26.2913793 15.3293103,26.3206897 15.0362069,26.4086207 C14.7431034,26.4965517 14.4793103,26.6137931 14.2741379,26.7896552 C14.0689655,26.9655172 13.9517241,27.2 13.9517241,27.4931034 C13.9517241,27.6982759 13.9810345,27.8741379 14.0689655,27.9913793 C14.1568966,28.137931 14.2741379,28.2551724 14.3913793,28.3431034 C14.537931,28.4310345 14.6844828,28.4896552 14.8603448,28.5482759 C15.0362069,28.5775862 15.212069,28.6068966 15.3586207,28.6068966 C15.6810345,28.6068966 15.9448276,28.5482759 16.1793103,28.4603448 C16.4137931,28.3431034 16.5896552,28.2258621 16.7655172,28.05 C16.912069,27.8741379 17.0293103,27.6689655 17.1172414,27.4344828 C17.1758621,27.2 17.2344828,26.9362069 17.2344828,26.6724138 L17.2344828,26.2327586 L16.7948276,26.2327586 C16.5896552,26.2327586 16.2965517,26.2327586 15.9741379,26.262069 Z M26.4965517,24.6206897 C26.35,24.3862069 26.1448276,24.2103448 25.8810345,24.0637931 C25.6172414,23.9172414 25.3241379,23.8293103 24.9724138,23.8293103 C24.6206897,23.8293103 24.2982759,23.887931 24.0344828,24.0051724 C23.7413793,24.1224138 23.5068966,24.2982759 23.3017241,24.5034483 C23.0965517,24.7086207 22.95,24.9724138 22.862069,25.2655172 C22.7448276,25.5586207 22.7155172,25.8810345 22.7155172,26.2327586 C22.7155172,26.5844828 22.7741379,26.9068966 22.862069,27.2 C22.9793103,27.4931034 23.1258621,27.7568966 23.3017241,27.962069 C23.5068966,28.1672414 23.7413793,28.3431034 24.0344828,28.4603448 C24.3275862,28.5775862 24.6206897,28.6362069 24.9724138,28.6362069 C25.2948276,28.6362069 25.6172414,28.5482759 25.8810345,28.4017241 C26.1448276,28.2551724 26.35,28.05 26.4965517,27.8448276 L27.2,28.3724138 C26.9068966,28.7241379 26.5551724,28.987931 26.1741379,29.1637931 C25.7931034,29.3396552 25.412069,29.4275862 24.9724138,29.4275862 C24.4741379,29.4275862 24.0344828,29.3689655 23.6534483,29.1931034 C23.2431034,29.0465517 22.9206897,28.812069 22.6275862,28.5189655 C22.3344828,28.2258621 22.1293103,27.9034483 21.9827586,27.4931034 C21.8362069,27.112069 21.7482759,26.6724138 21.7482759,26.2034483 C21.7482759,25.7344828 21.8068966,25.3241379 21.9827586,24.9431034 C22.1293103,24.562069 22.3344828,24.2103448 22.6275862,23.9172414 C22.9206897,23.6241379 23.2431034,23.4189655 23.6534483,23.2431034 C24.0637931,23.0965517 24.5034483,23.0086207 24.9724138,23.0086207 C25.3827586,23.0086207 25.7931034,23.0965517 26.1741379,23.2724138 C26.5551724,23.4482759 26.9068966,23.712069 27.2,24.0637931 L26.4965517,24.6206897 Z M30.3655172,19.462069 L31.2155172,19.462069 L31.2155172,24.1517241 L31.2448276,24.1517241 C31.3327586,23.9758621 31.45,23.8293103 31.5965517,23.712069 C31.7431034,23.5655172 31.9189655,23.4482759 32.0948276,23.3603448 C32.2706897,23.2724138 32.4758621,23.1844828 32.6810345,23.1258621 C32.8862069,23.0672414 33.0913793,23.037931 33.2965517,23.037931 C34.0586207,23.037931 34.6448276,23.2431034 35.0258621,23.6534483 C35.4068966,24.0637931 35.5827586,24.65 35.5827586,25.412069 L35.5827586,29.2517241 L34.7327586,29.2517241 L34.7327586,25.8810345 C34.7327586,25.2068966 34.6155172,24.6793103 34.3810345,24.3275862 C34.1465517,23.9758621 33.7068966,23.8 33.0913793,23.8 C33.062069,23.8 32.9155172,23.8293103 32.7396552,23.8586207 C32.5344828,23.887931 32.3293103,23.9758621 32.1241379,24.1517241 C31.8896552,24.2982759 31.7137931,24.5327586 31.537931,24.8551724 C31.362069,25.1775862 31.2741379,25.587931 31.2741379,26.1448276 L31.2741379,29.2517241 L30.4241379,29.2517241 L30.4241379,19.462069 L30.3655172,19.462069 Z M40.8,20.8689655 C40.8,21.0448276 40.7413793,21.1913793 40.5948276,21.3086207 C40.4775862,21.4258621 40.3310345,21.4844828 40.1551724,21.4844828 C39.9793103,21.4844828 39.862069,21.4258621 39.7155172,21.3086207 C39.5982759,21.1913793 39.5103448,21.0448276 39.5103448,20.8689655 C39.5103448,20.6931034 39.5689655,20.5465517 39.7155172,20.4293103 C39.8327586,20.312069 39.9793103,20.2534483 40.1551724,20.2534483 C40.3310345,20.2534483 40.4482759,20.312069 40.5948276,20.4293103 C40.7413793,20.5172414 40.8,20.6637931 40.8,20.8689655 Z M40.5948276,29.2517241 L39.7448276,29.2517241 L39.7448276,23.1844828 L40.5948276,23.1844828 L40.5948276,29.2517241 Z M45.6655172,23.1844828 C45.6948276,23.3603448 45.6948276,23.5068966 45.6948276,23.6827586 C45.6948276,23.8293103 45.6948276,24.0051724 45.6948276,24.1810345 L45.7241379,24.1810345 C45.812069,24.0051724 45.9293103,23.8586207 46.0758621,23.7413793 C46.2224138,23.5948276 46.3982759,23.4775862 46.5741379,23.3896552 C46.75,23.3017241 46.9551724,23.2137931 47.1603448,23.1551724 C47.3655172,23.0965517 47.5706897,23.0672414 47.7758621,23.0672414 C48.537931,23.0672414 49.1241379,23.2724138 49.5051724,23.6827586 C49.8862069,24.0931034 50.062069,24.6793103 50.062069,25.4413793 L50.062069,29.2810345 L49.212069,29.2810345 L49.212069,25.8810345 C49.212069,25.2068966 49.0948276,24.6793103 48.8603448,24.3275862 C48.6258621,23.9758621 48.1862069,23.8 47.5706897,23.8 C47.5413793,23.8 47.3948276,23.8293103 47.2189655,23.8586207 C47.0137931,23.887931 46.8086207,23.9758621 46.6034483,24.1517241 C46.3689655,24.2982759 46.1931034,24.5327586 46.0172414,24.8551724 C45.8413793,25.1775862 45.7534483,25.587931 45.7534483,26.1448276 L45.7534483,29.2517241 L44.9034483,29.2517241 L44.9034483,24.5327586 C44.9034483,24.3568966 44.9034483,24.1517241 44.8741379,23.9172414 C44.8741379,23.6534483 44.8448276,23.4189655 44.8155172,23.2137931 L45.6655172,23.2137931 L45.6655172,23.1844828 Z M54.6637931,26.437931 C54.6931034,26.7310345 54.7517241,27.0241379 54.8982759,27.287931 C55.0155172,27.5517241 55.1913793,27.7862069 55.3672414,27.9913793 C55.5724138,28.1965517 55.8068966,28.3431034 56.0413793,28.4603448 C56.3051724,28.5775862 56.5689655,28.6362069 56.8913793,28.6362069 C57.3603448,28.6362069 57.7413793,28.5189655 58.0637931,28.3137931 C58.3862069,28.1086207 58.65,27.8448276 58.8258621,27.5810345 L59.5,28.137931 C59.1482759,28.6068966 58.737931,28.9293103 58.2982759,29.1344828 C57.8586207,29.3396552 57.3896552,29.4275862 56.8913793,29.4275862 C56.4517241,29.4275862 56.012069,29.3396552 55.6310345,29.1931034 C55.25,29.0465517 54.9275862,28.812069 54.6344828,28.5189655 C54.3413793,28.2258621 54.1362069,27.9034483 53.9896552,27.5224138 C53.8431034,27.1413793 53.7551724,26.7017241 53.7551724,26.262069 C53.7551724,25.7931034 53.8431034,25.3827586 53.9896552,25.0017241 C54.1362069,24.6206897 54.3706897,24.2689655 54.6344828,24.0051724 C54.8982759,23.7413793 55.2206897,23.5068966 55.6017241,23.3310345 C55.9827586,23.1844828 56.3637931,23.0965517 56.8034483,23.0965517 C57.2724138,23.0965517 57.6827586,23.1844828 58.0344828,23.3310345 C58.3862069,23.5068966 58.7086207,23.712069 58.9431034,23.9758621 C59.1775862,24.2396552 59.3827586,24.562069 59.5,24.9431034 C59.6172414,25.3241379 59.7051724,25.7051724 59.7051724,26.1155172 L59.7051724,26.4965517 L54.6637931,26.4965517 L54.6637931,26.437931 Z M58.7672414,25.7637931 C58.7672414,25.1775862 58.5913793,24.7086207 58.2396552,24.3568966 C57.887931,24.0051724 57.4189655,23.8293103 56.8034483,23.8293103 C56.5396552,23.8293103 56.2465517,23.887931 56.012069,24.0051724 C55.7482759,24.1224138 55.5137931,24.2689655 55.337931,24.4448276 C55.1327586,24.6206897 54.9862069,24.8258621 54.8689655,25.0603448 C54.7517241,25.2948276 54.6931034,25.5293103 54.6931034,25.7931034 L58.7672414,25.7931034 L58.7672414,25.7637931 Z M70.0810345,29.2517241 L69.2310345,29.2517241 L69.2310345,19.462069 L70.0810345,19.462069 L70.0810345,29.2517241 Z M74.9172414,26.437931 C74.9465517,26.7310345 75.0051724,27.0241379 75.1517241,27.287931 C75.2689655,27.5517241 75.4448276,27.7862069 75.6206897,27.9913793 C75.8258621,28.1965517 76.0603448,28.3431034 76.2948276,28.4603448 C76.5586207,28.5775862 76.8224138,28.6362069 77.1448276,28.6362069 C77.6137931,28.6362069 77.9948276,28.5189655 78.3172414,28.3137931 C78.6396552,28.1086207 78.9034483,27.8448276 79.0793103,27.5810345 L79.7534483,28.137931 C79.4017241,28.6068966 78.9913793,28.9293103 78.5517241,29.1344828 C78.112069,29.3396552 77.6431034,29.4275862 77.1448276,29.4275862 C76.7051724,29.4275862 76.2655172,29.3396552 75.8844828,29.1931034 C75.5034483,29.0465517 75.1810345,28.812069 74.887931,28.5189655 C74.5948276,28.2258621 74.3896552,27.9034483 74.2431034,27.5224138 C74.0965517,27.1413793 74.0086207,26.7017241 74.0086207,26.262069 C74.0086207,25.7931034 74.0965517,25.3827586 74.2431034,25.0017241 C74.3896552,24.6206897 74.6241379,24.2689655 74.887931,24.0051724 C75.1517241,23.7413793 75.4741379,23.5068966 75.8551724,23.3310345 C76.2362069,23.1844828 76.6172414,23.0965517 77.0568966,23.0965517 C77.5258621,23.0965517 77.9362069,23.1844828 78.287931,23.3310345 C78.6396552,23.5068966 78.962069,23.712069 79.1965517,23.9758621 C79.4310345,24.2396552 79.6362069,24.562069 79.7534483,24.9431034 C79.8706897,25.3241379 79.9586207,25.7051724 79.9586207,26.1155172 L79.9586207,26.4965517 L74.9172414,26.4965517 L74.9172414,26.437931 Z M79.0206897,25.7637931 C79.0206897,25.1775862 78.8448276,24.7086207 78.4931034,24.3568966 C78.1413793,24.0051724 77.6724138,23.8293103 77.0568966,23.8293103 C76.7931034,23.8293103 76.5,23.887931 76.2655172,24.0051724 C76.0017241,24.1224138 75.7672414,24.2689655 75.5913793,24.4448276 C75.3862069,24.6206897 75.2396552,24.8258621 75.1224138,25.0603448 C75.0051724,25.2948276 74.9465517,25.5293103 74.9465517,25.7931034 L79.0206897,25.7931034 L79.0206897,25.7637931 Z M87.4034483,25.3827586 C87.4034483,24.3275862 86.8758621,23.8293103 85.85,23.8293103 C85.1465517,23.8293103 84.5310345,24.0637931 84.0034483,24.5327586 L83.4758621,23.9172414 C84.0327586,23.3310345 84.912069,23.037931 86.0258621,23.037931 C86.3189655,23.037931 86.612069,23.0672414 86.8758621,23.1551724 C87.1396552,23.2431034 87.3741379,23.3603448 87.5793103,23.5362069 C87.7844828,23.712069 87.9310345,23.9465517 88.0482759,24.2103448 C88.1655172,24.4741379 88.2241379,24.7965517 88.2241379,25.1775862 L88.2241379,27.8741379 C88.2241379,28.1086207 88.2241379,28.3431034 88.2534483,28.6068966 C88.2827586,28.8706897 88.312069,29.0758621 88.312069,29.2224138 L87.4913793,29.2224138 C87.462069,29.0758621 87.4327586,28.9293103 87.4327586,28.7534483 C87.4327586,28.5775862 87.4034483,28.4017241 87.4034483,28.2551724 L87.3741379,28.2551724 C87.1103448,28.6655172 86.8172414,28.9586207 86.4948276,29.1344828 C86.1431034,29.3103448 85.7327586,29.3982759 85.2344828,29.3982759 C84.9706897,29.3982759 84.7068966,29.3689655 84.4724138,29.2810345 C84.2086207,29.2224138 84.0034483,29.1051724 83.7982759,28.9586207 C83.5931034,28.812069 83.4465517,28.6362069 83.3293103,28.4017241 C83.212069,28.1672414 83.1534483,27.9327586 83.1534483,27.6396552 C83.1534483,27.1413793 83.2706897,26.7603448 83.5344828,26.4672414 C83.7982759,26.1741379 84.1206897,25.9689655 84.5017241,25.8517241 C84.8827586,25.7051724 85.2931034,25.6172414 85.7327586,25.587931 C86.1724138,25.5586207 86.5534483,25.5293103 86.9344828,25.5293103 L87.4034483,25.5293103 L87.4034483,25.3827586 Z M86.1431034,26.262069 C85.8206897,26.2913793 85.4982759,26.3206897 85.2051724,26.4086207 C84.912069,26.4965517 84.6482759,26.6137931 84.4431034,26.7896552 C84.237931,26.9655172 84.1206897,27.2 84.1206897,27.4931034 C84.1206897,27.6982759 84.15,27.8741379 84.237931,27.9913793 C84.3258621,28.137931 84.4431034,28.2551724 84.5603448,28.3431034 C84.7068966,28.4310345 84.8534483,28.4896552 85.0293103,28.5482759 C85.2051724,28.5775862 85.3810345,28.6068966 85.5275862,28.6068966 C85.85,28.6068966 86.1137931,28.5482759 86.3482759,28.4603448 C86.5827586,28.3431034 86.7586207,28.2258621 86.9344828,28.05 C87.1103448,27.8741379 87.1982759,27.6689655 87.2862069,27.4344828 C87.3741379,27.2 87.4034483,26.9362069 87.4034483,26.6724138 L87.4034483,26.2327586 L86.9637931,26.2327586 C86.7586207,26.2327586 86.4655172,26.2327586 86.1431034,26.262069 Z M92.3275862,24.2689655 C92.3275862,24.0051724 92.2982759,23.6241379 92.2982759,23.1844828 L93.1482759,23.1844828 L93.1482759,24.2982759 L93.1775862,24.2982759 C93.2362069,24.1224138 93.3241379,23.9758621 93.4413793,23.8293103 C93.5586207,23.6827586 93.6758621,23.5362069 93.8517241,23.4189655 C94.0275862,23.3017241 94.2034483,23.2137931 94.4086207,23.1258621 C94.6137931,23.0672414 94.8482759,23.0086207 95.1413793,23.0086207 C95.3758621,23.0086207 95.5810345,23.037931 95.7862069,23.0965517 L95.6103448,23.9465517 C95.4931034,23.9172414 95.3465517,23.887931 95.112069,23.887931 C94.7896552,23.887931 94.4965517,23.9465517 94.262069,24.0637931 C94.0275862,24.1810345 93.8224138,24.3568966 93.6758621,24.5327586 C93.5293103,24.737931 93.412069,24.9431034 93.3241379,25.1482759 C93.2655172,25.3827586 93.2068966,25.587931 93.2068966,25.7931034 L93.2068966,29.2224138 L92.3568966,29.2224138 L92.3568966,25.0896552 C92.3568966,24.8258621 92.3568966,24.562069 92.3275862,24.2689655 Z M99.7137931,23.1844828 C99.7431034,23.3603448 99.7431034,23.5068966 99.7431034,23.6827586 C99.7431034,23.8293103 99.7431034,24.0051724 99.7431034,24.1810345 L99.7724138,24.1810345 C99.8603448,24.0051724 99.9775862,23.8586207 100.124138,23.7413793 C100.27069,23.5948276 100.446552,23.4775862 100.622414,23.3896552 C100.798276,23.3017241 101.003448,23.2137931 101.208621,23.1551724 C101.413793,23.0965517 101.618966,23.0672414 101.824138,23.0672414 C102.586207,23.0672414 103.172414,23.2724138 103.553448,23.6827586 C103.934483,24.0931034 104.110345,24.6793103 104.110345,25.4413793 L104.110345,29.2810345 L103.260345,29.2810345 L103.260345,25.8810345 C103.260345,25.2068966 103.143103,24.6793103 102.908621,24.3275862 C102.674138,23.9758621 102.234483,23.8 101.618966,23.8 C101.589655,23.8 101.443103,23.8293103 101.267241,23.8586207 C101.062069,23.887931 100.856897,23.9758621 100.651724,24.1517241 C100.417241,24.2982759 100.241379,24.5327586 100.065517,24.8551724 C99.8896552,25.1775862 99.8017241,25.587931 99.8017241,26.1448276 L99.8017241,29.2517241 L98.9517241,29.2517241 L98.9517241,24.5327586 C98.9517241,24.3568966 98.9517241,24.1517241 98.9224138,23.9172414 C98.9224138,23.6534483 98.8931034,23.4189655 98.8637931,23.2137931 L99.7137931,23.2137931 L99.7137931,23.1844828 Z M109.356897,20.8689655 C109.356897,21.0448276 109.298276,21.1913793 109.151724,21.3086207 C109.034483,21.4258621 108.887931,21.4844828 108.712069,21.4844828 C108.536207,21.4844828 108.418966,21.4258621 108.272414,21.3086207 C108.155172,21.1913793 108.067241,21.0448276 108.067241,20.8689655 C108.067241,20.6931034 108.125862,20.5465517 108.272414,20.4293103 C108.389655,20.312069 108.536207,20.2534483 108.712069,20.2534483 C108.887931,20.2534483 109.005172,20.312069 109.151724,20.4293103 C109.298276,20.5172414 109.356897,20.6637931 109.356897,20.8689655 Z M109.151724,29.2517241 L108.301724,29.2517241 L108.301724,23.1844828 L109.151724,23.1844828 L109.151724,29.2517241 Z M114.222414,23.1844828 C114.251724,23.3603448 114.251724,23.5068966 114.251724,23.6827586 C114.251724,23.8293103 114.251724,24.0051724 114.251724,24.1810345 L114.281034,24.1810345 C114.368966,24.0051724 114.486207,23.8586207 114.632759,23.7413793 C114.77931,23.5948276 114.955172,23.4775862 115.131034,23.3896552 C115.306897,23.3017241 115.512069,23.2137931 115.717241,23.1551724 C115.922414,23.0965517 116.127586,23.0672414 116.332759,23.0672414 C117.094828,23.0672414 117.681034,23.2724138 118.062069,23.6827586 C118.443103,24.0931034 118.618966,24.6793103 118.618966,25.4413793 L118.618966,29.2810345 L117.768966,29.2810345 L117.768966,25.8810345 C117.768966,25.2068966 117.651724,24.6793103 117.417241,24.3275862 C117.182759,23.9758621 116.743103,23.8 116.127586,23.8 C116.098276,23.8 115.951724,23.8293103 115.775862,23.8586207 C115.57069,23.887931 115.365517,23.9758621 115.160345,24.1517241 C114.925862,24.2982759 114.75,24.5327586 114.574138,24.8551724 C114.398276,25.1775862 114.310345,25.587931 114.310345,26.1448276 L114.310345,29.2517241 L113.460345,29.2517241 L113.460345,24.5327586 C113.460345,24.3568966 113.460345,24.1517241 113.431034,23.9172414 C113.431034,23.6534483 113.401724,23.4189655 113.372414,23.2137931 L114.222414,23.2137931 L114.222414,23.1844828 Z M123.074138,30.4534483 C123.337931,30.7758621 123.660345,31.0689655 124.041379,31.2741379 C124.451724,31.4793103 124.891379,31.5672414 125.389655,31.5672414 C125.82931,31.5672414 126.181034,31.5086207 126.503448,31.3913793 C126.796552,31.2741379 127.060345,31.0982759 127.236207,30.8931034 C127.412069,30.687931 127.558621,30.4241379 127.646552,30.1310345 C127.734483,29.837931 127.763793,29.5448276 127.763793,29.1931034 L127.763793,28.1086207 L127.734483,28.1086207 C127.47069,28.5189655 127.118966,28.812069 126.737931,28.987931 C126.327586,29.1637931 125.917241,29.2517241 125.477586,29.2517241 C125.037931,29.2517241 124.627586,29.1637931 124.246552,29.0172414 C123.865517,28.8706897 123.513793,28.6362069 123.25,28.3724138 C122.956897,28.1086207 122.751724,27.7862069 122.575862,27.4051724 C122.4,27.0241379 122.341379,26.6137931 122.341379,26.1741379 C122.341379,25.7344828 122.42931,25.3241379 122.575862,24.9431034 C122.722414,24.562069 122.956897,24.2396552 123.22069,23.9465517 C123.484483,23.6534483 123.806897,23.4482759 124.187931,23.2724138 C124.568966,23.1258621 124.97931,23.037931 125.418966,23.037931 C125.594828,23.037931 125.8,23.0672414 126.005172,23.0965517 C126.210345,23.1258621 126.415517,23.1844828 126.62069,23.2724138 C126.825862,23.3603448 127.031034,23.4775862 127.236207,23.6241379 C127.441379,23.7706897 127.617241,23.9758621 127.793103,24.2103448 L127.822414,24.2103448 L127.822414,23.2137931 L128.672414,23.2137931 L128.672414,29.2224138 C128.672414,29.5448276 128.643103,29.8965517 128.555172,30.2775862 C128.467241,30.6586207 128.32069,30.9810345 128.086207,31.3034483 C127.851724,31.6258621 127.52931,31.8603448 127.089655,32.0948276 C126.67931,32.3 126.122414,32.4172414 125.418966,32.4172414 C124.803448,32.4172414 124.275862,32.3293103 123.806897,32.1241379 C123.337931,31.9189655 122.898276,31.6258621 122.517241,31.2155172 L123.074138,30.4534483 Z M123.22069,26.1448276 C123.22069,26.4672414 123.27931,26.7603448 123.396552,27.0534483 C123.513793,27.3465517 123.660345,27.5810345 123.865517,27.7862069 C124.07069,27.9913793 124.305172,28.1672414 124.568966,28.2844828 C124.832759,28.4017241 125.125862,28.4603448 125.448276,28.4603448 C125.77069,28.4603448 126.063793,28.4017241 126.327586,28.2844828 C126.591379,28.1672414 126.855172,28.0206897 127.060345,27.8155172 C127.265517,27.6103448 127.441379,27.3758621 127.558621,27.0827586 C127.675862,26.7896552 127.734483,26.4672414 127.734483,26.1155172 C127.734483,25.7931034 127.675862,25.5 127.587931,25.2068966 C127.47069,24.9137931 127.324138,24.6793103 127.148276,24.4741379 C126.943103,24.2689655 126.708621,24.0931034 126.415517,23.9758621 C126.122414,23.8586207 125.8,23.8 125.448276,23.8 C125.125862,23.8 124.832759,23.8586207 124.568966,23.9758621 C124.305172,24.0931034 124.07069,24.2689655 123.865517,24.4741379 C123.660345,24.6793103 123.513793,24.9431034 123.396552,25.2068966 C123.27931,25.4706897 123.22069,25.8224138 123.22069,26.1448276 Z" id="Shape" fill-rule="nonzero"></path>
          </g>
          <g id="Logo/Icon/White">
            <path d="M28.6,28.8026316 C26.1394737,31.1763158 22.7815789,32.6526316 19.1052632,32.6526316 C11.55,32.6526316 5.41315789,26.5157895 5.41315789,18.9605263 L5.41315789,16.7315789 L11.1157895,16.7315789 L11.1157895,18.9605263 C11.1157895,24.75 15.8052632,29.4394737 21.5947368,29.4394737 C23.7657895,29.4394737 25.7921053,28.7736842 27.4710526,27.6447368 L28.6,28.8026316 Z M9.20526316,31.7842105 L9.61052632,30.9736842 C10.5947368,31.4368421 11.6657895,31.7263158 12.7657895,31.8421053 L12.5921053,32.5657895 C11.4052632,32.45 10.2763158,32.1894737 9.20526316,31.7842105 Z M5.23947368,29.4973684 L6.16578947,28.4263158 C6.91842105,29.2657895 7.78684211,29.9605263 8.74210526,30.5394737 L8.22105263,31.3789474 C7.15,30.8868421 6.13684211,30.25 5.23947368,29.4973684 Z M0.289473684,18.9605263 C0.289473684,11.4052632 6.42631579,5.26842105 13.9815789,5.26842105 L16.2105263,5.26842105 L16.2105263,10.9710526 L13.9815789,10.9710526 C8.19210526,10.9710526 3.50263158,15.6605263 3.50263158,21.45 C3.50263158,23.6210526 4.16842105,25.6473684 5.29736842,27.3263158 L4.13947368,28.4842105 C1.76578947,26.0236842 0.289473684,22.6657895 0.289473684,18.9605263 Z M28.5710526,26.7763158 C29.4105263,26.0236842 30.1052632,25.1552632 30.6842105,24.2 L31.5236842,24.7210526 C31.0315789,25.7921053 30.3947368,26.7763158 29.6421053,27.7026316 L28.5710526,26.7763158 Z M19.1052632,27.6447368 L16.8763158,27.6447368 L16.8763158,21.9710526 L19.1052632,21.9710526 C24.8947368,21.9710526 29.5842105,17.2815789 29.5842105,11.4921053 C29.5842105,9.32105263 28.9184211,7.29473684 27.7894737,5.61578947 L28.9473684,4.48684211 C31.3210526,6.94736842 32.7973684,10.3052632 32.7973684,13.9815789 C32.7973684,21.5368421 26.6605263,27.6447368 19.1052632,27.6447368 Z M31.9289474,23.7368421 L31.1184211,23.3315789 C31.5815789,22.3473684 31.8710526,21.2763158 31.9868421,20.1763158 L32.7105263,20.35 C32.5947368,21.5368421 32.3342105,22.6657895 31.9289474,23.7368421 Z M21.9710526,16.1815789 L21.9710526,13.9526316 C21.9710526,8.16315789 17.2815789,3.47368421 11.4921053,3.47368421 C9.32105263,3.47368421 7.29473684,4.13947368 5.61578947,5.26842105 L4.48684211,4.11052632 C6.91842105,1.76578947 10.2763158,0.289473684 13.9815789,0.289473684 C21.5368421,0.289473684 27.6736842,6.42631579 27.6736842,13.9815789 L27.6736842,16.1815789 L21.9710526,16.1815789 Z M1.15789474,9.20526316 L1.96842105,9.61052632 C1.50526316,10.5947368 1.21578947,11.6657895 1.1,12.7657895 L0.376315789,12.5921053 C0.463157895,11.4052632 0.752631579,10.2763158 1.15789474,9.20526316 Z M3.44473684,5.23947368 L4.51578947,6.16578947 C3.67631579,6.91842105 2.98157895,7.78684211 2.40263158,8.74210526 L1.56315789,8.22105263 C2.05526316,7.15 2.69210526,6.13684211 3.44473684,5.23947368 Z M26.9210526,4.48684211 C26.1684211,3.64736842 25.3,2.95263158 24.3447368,2.37368421 L24.8657895,1.53421053 C25.9368421,2.05526316 26.9210526,2.69210526 27.8184211,3.44473684 L26.9210526,4.48684211 Z M23.8815789,1.15789474 L23.4473684,1.96842105 C22.4631579,1.50526316 21.3921053,1.21578947 20.2921053,1.1 L20.4657895,0.376315789 C21.6526316,0.463157895 22.8105263,0.752631579 23.8815789,1.15789474 Z" id="Combined-Shape"></path>
          </g>
        </g>
      </g>
    </g>
  </g>
</svg>