<?xml version="1.0" encoding="UTF-8"?>
<svg width="238px" height="659px" viewBox="0 0 238 659" version="1.1" xmlns="http://www.w3.org/2000/svg" xmlns:xlink="http://www.w3.org/1999/xlink">
    <!-- Generator: Sketch 51.3 (57544) - http://www.bohemiancoding.com/sketch -->
    <title>Logo Bg</title>
    <desc>Created with Sketch.</desc>
    <defs>
        <radialGradient cx="40.6584069%" cy="81.0879039%" fx="40.6584069%" fy="81.0879039%" r="111.292767%" gradientTransform="translate(0.406584,0.810879),scale(0.995548,1.000000),rotate(-126.991380),scale(1.000000,1.585051),translate(-0.406584,-0.810879)" id="radialGradient-1">
            <stop stop-color="#29364A" offset="0%"></stop>
            <stop stop-color="#29364A" offset="20.6060332%"></stop>
            <stop stop-color="#7E92B1" offset="100%"></stop>
        </radialGradient>
        <path d="M581.726297,585.889982 C531.167263,634.66458 462.169052,665 386.627907,665 C231.381932,665 105.281753,538.899821 105.281753,383.653846 L105.281753,337.853309 L222.45975,337.853309 L222.45975,383.653846 C222.45975,502.616279 318.81932,598.97585 437.781753,598.97585 C482.392665,598.97585 524.029517,585.29517 558.528623,562.097496 L581.726297,585.889982 Z M183.202147,647.155635 L191.529517,630.500894 C211.753131,640.017889 233.761181,645.966011 256.364043,648.345259 L252.79517,663.215564 C228.407871,660.836315 205.210197,655.483005 183.202147,647.155635 Z M101.71288,600.165474 L120.746869,578.157424 C136.211986,595.406977 154.056351,609.682469 173.685152,621.578712 L162.978533,638.828265 C140.970483,628.716458 120.152057,615.63059 101.71288,600.165474 Z M0,383.653846 C0,228.407871 126.100179,102.307692 281.346154,102.307692 L327.146691,102.307692 L327.146691,219.485689 L281.346154,219.485689 C162.383721,219.485689 66.0241503,315.845259 66.0241503,434.807692 C66.0241503,479.418605 79.7048301,521.055456 102.902504,555.554562 L79.1100179,579.347048 C30.3354204,528.788014 0,459.789803 0,383.653846 Z M581.131485,544.253131 C598.381038,528.788014 612.65653,510.943649 624.552773,491.314848 L641.802326,502.021467 C631.690519,524.029517 618.604651,544.253131 603.139535,563.28712 L581.131485,544.253131 Z M386.627907,562.097496 L340.82737,562.097496 L340.82737,445.514311 L386.627907,445.514311 C505.59034,445.514311 601.949911,349.154741 601.949911,230.192308 C601.949911,185.581395 588.269231,143.944544 565.071556,109.445438 L588.864043,86.2477639 C637.63864,136.806798 667.974061,205.805009 667.974061,281.346154 C667.974061,436.592129 541.873882,562.097496 386.627907,562.097496 Z M650.129696,481.797853 L633.474955,473.470483 C642.99195,453.246869 648.940072,431.238819 651.31932,408.635957 L666.189624,412.20483 C663.810376,436.592129 658.457066,459.789803 650.129696,481.797853 Z M445.514311,326.551878 L445.514311,280.751342 C445.514311,161.788909 349.154741,65.4293381 230.192308,65.4293381 C185.581395,65.4293381 143.944544,79.1100179 109.445438,102.307692 L86.2477639,78.5152057 C136.211986,30.3354204 205.210197,0 281.346154,0 C436.592129,0 562.692308,126.100179 562.692308,281.346154 L562.692308,326.551878 L445.514311,326.551878 Z M17.8443649,183.202147 L34.4991055,191.529517 C24.9821109,211.753131 19.0339893,233.761181 16.6547406,256.364043 L1.78443649,252.79517 C3.56887299,228.407871 9.51699463,205.210197 17.8443649,183.202147 Z M64.8345259,101.71288 L86.842576,120.746869 C69.5930233,136.211986 55.3175313,154.056351 43.421288,173.685152 L26.1717352,162.978533 C36.283542,140.970483 49.3694097,120.152057 64.8345259,101.71288 Z M547.227191,86.2477639 C531.762075,68.9982111 513.91771,54.7227191 494.288909,42.8264758 L504.995528,25.5769231 C527.003578,36.283542 547.227191,49.3694097 565.666369,64.8345259 L547.227191,86.2477639 Z M484.771914,17.8443649 L475.849732,34.4991055 C455.626118,24.9821109 433.618068,19.0339893 411.015206,16.6547406 L414.584079,1.78443649 C438.971377,3.56887299 462.763864,9.51699463 484.771914,17.8443649 Z" id="path-2"></path>
    </defs>
    <g id="Onboarding" stroke="none" stroke-width="1" fill="none" fill-rule="evenodd" opacity="0.243973226">
        <g id="DML/Onboarding---Step-4" transform="translate(-202.000000, -68.000000)">
            <g id="Sidebar">
                <g id="Logo-Bg" transform="translate(202.000000, 65.000000)">
                    <g>
                        <use fill="#29364A" xlink:href="#path-2"></use>
                        <use fill="url(#radialGradient-1)" xlink:href="#path-2"></use>
                    </g>
                </g>
            </g>
        </g>
    </g>
</svg>